<svg xmlns="http://www.w3.org/2000/svg" xmlns:xlink="http://www.w3.org/1999/xlink" width="419.917" height="508.312" viewBox="0 0 419.917 508.312"><defs><clipPath id="a"><rect width="132" height="402" fill="none"/></clipPath><clipPath id="b"><rect width="309.047" height="200.242" fill="none"/></clipPath><clipPath id="d"><rect width="58.291" height="99.434" fill="none"/></clipPath><clipPath id="e"><rect width="183.303" height="101.038" fill="none"/></clipPath><radialGradient id="f" cx="0.5" cy="0.5" r="0.5" gradientUnits="objectBoundingBox"><stop offset="0" stop-color="#428add" stop-opacity="0.588"/><stop offset="0.837" stop-color="#63a7d8" stop-opacity="0.063"/><stop offset="1" stop-color="#d95f5f" stop-opacity="0"/></radialGradient></defs><g transform="translate(-677.047 35.156)"><g transform="translate(809 22.653)" opacity="0.15" clip-path="url(#a)"><g transform="translate(-35 -402)"><circle cx="1.5" cy="1.5" r="1.5" transform="translate(35 402)" fill="#fff" opacity="0.5"/></g><g transform="translate(-12 -402)"><circle cx="1.5" cy="1.5" r="1.5" transform="translate(35 402)" fill="#fff" opacity="0.5"/></g><g transform="translate(11 -402)"><circle cx="1.5" cy="1.5" r="1.5" transform="translate(35 402)" fill="#fff" opacity="0.5"/></g><g transform="translate(34 -402)"><circle cx="1.5" cy="1.5" r="1.5" transform="translate(35 402)" fill="#fff" opacity="0.5"/></g><g transform="translate(57 -402)"><circle cx="1.5" cy="1.5" r="1.5" transform="translate(35 402)" fill="#fff" opacity="0.5"/></g><g transform="translate(80 -402)"><circle cx="1.5" cy="1.5" r="1.5" transform="translate(35 402)" fill="#fff" opacity="0.5"/></g><g transform="translate(-35 -379)"><circle cx="1.5" cy="1.5" r="1.5" transform="translate(35 402)" fill="#fff" opacity="0.5"/></g><g transform="translate(-12 -379)"><circle cx="1.5" cy="1.5" r="1.5" transform="translate(35 402)" fill="#fff" opacity="0.5"/></g><g transform="translate(11 -379)"><circle cx="1.5" cy="1.5" r="1.5" transform="translate(35 402)" fill="#fff" opacity="0.5"/></g><g transform="translate(34 -379)"><circle cx="1.5" cy="1.5" r="1.5" transform="translate(35 402)" fill="#fff" opacity="0.5"/></g><g transform="translate(57 -379)"><circle cx="1.5" cy="1.5" r="1.5" transform="translate(35 402)" fill="#fff" opacity="0.5"/></g><g transform="translate(80 -379)"><circle cx="1.5" cy="1.5" r="1.5" transform="translate(35 402)" fill="#fff" opacity="0.5"/></g><g transform="translate(-35 -356)"><circle cx="1.5" cy="1.5" r="1.5" transform="translate(35 402)" fill="#fff" opacity="0.5"/></g><g transform="translate(-12 -356)"><circle cx="1.5" cy="1.5" r="1.5" transform="translate(35 402)" fill="#fff" opacity="0.5"/></g><g transform="translate(11 -356)"><circle cx="1.5" cy="1.5" r="1.5" transform="translate(35 402)" fill="#fff" opacity="0.5"/></g><g transform="translate(34 -356)"><circle cx="1.5" cy="1.5" r="1.5" transform="translate(35 402)" fill="#fff" opacity="0.5"/></g><g transform="translate(57 -356)"><circle cx="1.5" cy="1.5" r="1.5" transform="translate(35 402)" fill="#fff" opacity="0.5"/></g><g transform="translate(80 -356)"><circle cx="1.5" cy="1.5" r="1.5" transform="translate(35 402)" fill="#fff" opacity="0.5"/></g><g transform="translate(-35 -333)"><circle cx="1.5" cy="1.5" r="1.5" transform="translate(35 402)" fill="#fff" opacity="0.5"/></g><g transform="translate(-12 -333)"><circle cx="1.5" cy="1.5" r="1.5" transform="translate(35 402)" fill="#fff" opacity="0.5"/></g><g transform="translate(11 -333)"><circle cx="1.5" cy="1.5" r="1.5" transform="translate(35 402)" fill="#fff" opacity="0.5"/></g><g transform="translate(34 -333)"><circle cx="1.5" cy="1.5" r="1.5" transform="translate(35 402)" fill="#fff" opacity="0.5"/></g><g transform="translate(57 -333)"><circle cx="1.5" cy="1.5" r="1.5" transform="translate(35 402)" fill="#fff" opacity="0.5"/></g><g transform="translate(80 -333)"><circle cx="1.5" cy="1.5" r="1.5" transform="translate(35 402)" fill="#fff" opacity="0.5"/></g><g transform="translate(-35 -310)"><circle cx="1.5" cy="1.5" r="1.5" transform="translate(35 402)" fill="#fff" opacity="0.5"/></g><g transform="translate(-12 -310)"><circle cx="1.5" cy="1.5" r="1.5" transform="translate(35 402)" fill="#fff" opacity="0.5"/></g><g transform="translate(11 -310)"><circle cx="1.5" cy="1.5" r="1.5" transform="translate(35 402)" fill="#fff" opacity="0.5"/></g><g transform="translate(34 -310)"><circle cx="1.5" cy="1.5" r="1.5" transform="translate(35 402)" fill="#fff" opacity="0.5"/></g><g transform="translate(57 -310)"><circle cx="1.5" cy="1.5" r="1.5" transform="translate(35 402)" fill="#fff" opacity="0.5"/></g><g transform="translate(80 -310)"><circle cx="1.5" cy="1.5" r="1.5" transform="translate(35 402)" fill="#fff" opacity="0.5"/></g><g transform="translate(-35 -287)"><circle cx="1.5" cy="1.5" r="1.5" transform="translate(35 402)" fill="#fff" opacity="0.5"/></g><g transform="translate(-12 -287)"><circle cx="1.5" cy="1.5" r="1.5" transform="translate(35 402)" fill="#fff" opacity="0.5"/></g><g transform="translate(11 -287)"><circle cx="1.5" cy="1.5" r="1.5" transform="translate(35 402)" fill="#fff" opacity="0.5"/></g><g transform="translate(34 -287)"><circle cx="1.5" cy="1.5" r="1.5" transform="translate(35 402)" fill="#fff" opacity="0.5"/></g><g transform="translate(57 -287)"><circle cx="1.5" cy="1.5" r="1.5" transform="translate(35 402)" fill="#fff" opacity="0.5"/></g><g transform="translate(80 -287)"><circle cx="1.5" cy="1.5" r="1.5" transform="translate(35 402)" fill="#fff" opacity="0.5"/></g><g transform="translate(-35 -264)"><circle cx="1.5" cy="1.5" r="1.5" transform="translate(35 402)" fill="#fff" opacity="0.5"/></g><g transform="translate(-12 -264)"><circle cx="1.5" cy="1.5" r="1.5" transform="translate(35 402)" fill="#fff" opacity="0.5"/></g><g transform="translate(11 -264)"><circle cx="1.5" cy="1.5" r="1.5" transform="translate(35 402)" fill="#fff" opacity="0.5"/></g><g transform="translate(34 -264)"><circle cx="1.5" cy="1.5" r="1.5" transform="translate(35 402)" fill="#fff" opacity="0.5"/></g><g transform="translate(57 -264)"><circle cx="1.5" cy="1.5" r="1.5" transform="translate(35 402)" fill="#fff" opacity="0.5"/></g><g transform="translate(80 -264)"><circle cx="1.5" cy="1.5" r="1.5" transform="translate(35 402)" fill="#fff" opacity="0.5"/></g><g transform="translate(-35 -241)"><circle cx="1.5" cy="1.5" r="1.5" transform="translate(35 402)" fill="#fff" opacity="0.5"/></g><g transform="translate(-12 -241)"><circle cx="1.5" cy="1.5" r="1.5" transform="translate(35 402)" fill="#fff" opacity="0.5"/></g><g transform="translate(11 -241)"><circle cx="1.5" cy="1.5" r="1.5" transform="translate(35 402)" fill="#fff" opacity="0.5"/></g><g transform="translate(34 -241)"><circle cx="1.5" cy="1.5" r="1.5" transform="translate(35 402)" fill="#fff" opacity="0.5"/></g><g transform="translate(57 -241)"><circle cx="1.5" cy="1.5" r="1.5" transform="translate(35 402)" fill="#fff" opacity="0.5"/></g><g transform="translate(80 -241)"><circle cx="1.5" cy="1.5" r="1.5" transform="translate(35 402)" fill="#fff" opacity="0.5"/></g><g transform="translate(-35 -218)"><circle cx="1.5" cy="1.5" r="1.5" transform="translate(35 402)" fill="#fff" opacity="0.5"/></g><g transform="translate(-12 -218)"><circle cx="1.5" cy="1.5" r="1.5" transform="translate(35 402)" fill="#fff" opacity="0.5"/></g><g transform="translate(11 -218)"><circle cx="1.5" cy="1.5" r="1.5" transform="translate(35 402)" fill="#fff" opacity="0.5"/></g><g transform="translate(34 -218)"><circle cx="1.5" cy="1.5" r="1.5" transform="translate(35 402)" fill="#fff" opacity="0.5"/></g><g transform="translate(57 -218)"><circle cx="1.5" cy="1.5" r="1.5" transform="translate(35 402)" fill="#fff" opacity="0.5"/></g><g transform="translate(80 -218)"><circle cx="1.5" cy="1.5" r="1.5" transform="translate(35 402)" fill="#fff" opacity="0.5"/></g><g transform="translate(-35 -195)"><circle cx="1.5" cy="1.5" r="1.5" transform="translate(35 402)" fill="#fff" opacity="0.5"/></g><g transform="translate(-12 -195)"><circle cx="1.5" cy="1.5" r="1.5" transform="translate(35 402)" fill="#fff" opacity="0.5"/></g><g transform="translate(11 -195)"><circle cx="1.5" cy="1.5" r="1.5" transform="translate(35 402)" fill="#fff" opacity="0.5"/></g><g transform="translate(34 -195)"><circle cx="1.5" cy="1.5" r="1.5" transform="translate(35 402)" fill="#fff" opacity="0.5"/></g><g transform="translate(57 -195)"><circle cx="1.5" cy="1.5" r="1.5" transform="translate(35 402)" fill="#fff" opacity="0.5"/></g><g transform="translate(80 -195)"><circle cx="1.5" cy="1.5" r="1.5" transform="translate(35 402)" fill="#fff" opacity="0.5"/></g><g transform="translate(-35 -172)"><circle cx="1.5" cy="1.5" r="1.5" transform="translate(35 402)" fill="#fff" opacity="0.5"/></g><g transform="translate(-12 -172)"><circle cx="1.5" cy="1.5" r="1.5" transform="translate(35 402)" fill="#fff" opacity="0.5"/></g><g transform="translate(11 -172)"><circle cx="1.5" cy="1.5" r="1.5" transform="translate(35 402)" fill="#fff" opacity="0.5"/></g><g transform="translate(34 -172)"><circle cx="1.5" cy="1.5" r="1.5" transform="translate(35 402)" fill="#fff" opacity="0.5"/></g><g transform="translate(57 -172)"><circle cx="1.5" cy="1.5" r="1.5" transform="translate(35 402)" fill="#fff" opacity="0.5"/></g><g transform="translate(80 -172)"><circle cx="1.5" cy="1.5" r="1.5" transform="translate(35 402)" fill="#fff" opacity="0.5"/></g><g transform="translate(-35 -149)"><circle cx="1.5" cy="1.5" r="1.5" transform="translate(35 402)" fill="#fff" opacity="0.5"/></g><g transform="translate(-12 -149)"><circle cx="1.5" cy="1.5" r="1.5" transform="translate(35 402)" fill="#fff" opacity="0.5"/></g><g transform="translate(11 -149)"><circle cx="1.5" cy="1.5" r="1.5" transform="translate(35 402)" fill="#fff" opacity="0.5"/></g><g transform="translate(34 -149)"><circle cx="1.5" cy="1.5" r="1.5" transform="translate(35 402)" fill="#fff" opacity="0.5"/></g><g transform="translate(57 -149)"><circle cx="1.5" cy="1.5" r="1.5" transform="translate(35 402)" fill="#fff" opacity="0.5"/></g><g transform="translate(80 -149)"><circle cx="1.5" cy="1.5" r="1.5" transform="translate(35 402)" fill="#fff" opacity="0.5"/></g><g transform="translate(-35 -126)"><circle cx="1.5" cy="1.5" r="1.5" transform="translate(35 402)" fill="#fff" opacity="0.5"/></g><g transform="translate(-12 -126)"><circle cx="1.5" cy="1.5" r="1.5" transform="translate(35 402)" fill="#fff" opacity="0.5"/></g><g transform="translate(11 -126)"><circle cx="1.5" cy="1.5" r="1.5" transform="translate(35 402)" fill="#fff" opacity="0.5"/></g><g transform="translate(34 -126)"><circle cx="1.5" cy="1.5" r="1.5" transform="translate(35 402)" fill="#fff" opacity="0.5"/></g><g transform="translate(57 -126)"><circle cx="1.5" cy="1.5" r="1.5" transform="translate(35 402)" fill="#fff" opacity="0.5"/></g><g transform="translate(80 -126)"><circle cx="1.5" cy="1.5" r="1.5" transform="translate(35 402)" fill="#fff" opacity="0.5"/></g><g transform="translate(-35 -103)"><circle cx="1.5" cy="1.5" r="1.5" transform="translate(35 402)" fill="#fff" opacity="0.5"/></g><g transform="translate(-12 -103)"><circle cx="1.5" cy="1.5" r="1.5" transform="translate(35 402)" fill="#fff" opacity="0.5"/></g><g transform="translate(11 -103)"><circle cx="1.5" cy="1.5" r="1.5" transform="translate(35 402)" fill="#fff" opacity="0.5"/></g><g transform="translate(34 -103)"><circle cx="1.5" cy="1.5" r="1.5" transform="translate(35 402)" fill="#fff" opacity="0.5"/></g><g transform="translate(57 -103)"><circle cx="1.5" cy="1.5" r="1.5" transform="translate(35 402)" fill="#fff" opacity="0.5"/></g><g transform="translate(80 -103)"><circle cx="1.5" cy="1.5" r="1.5" transform="translate(35 402)" fill="#fff" opacity="0.5"/></g><g transform="translate(-35 -80)"><circle cx="1.5" cy="1.5" r="1.5" transform="translate(35 402)" fill="#fff" opacity="0.5"/></g><g transform="translate(-12 -80)"><circle cx="1.5" cy="1.5" r="1.5" transform="translate(35 402)" fill="#fff" opacity="0.5"/></g><g transform="translate(11 -80)"><circle cx="1.5" cy="1.5" r="1.5" transform="translate(35 402)" fill="#fff" opacity="0.5"/></g><g transform="translate(34 -80)"><circle cx="1.5" cy="1.5" r="1.5" transform="translate(35 402)" fill="#fff" opacity="0.5"/></g><g transform="translate(57 -80)"><circle cx="1.5" cy="1.5" r="1.5" transform="translate(35 402)" fill="#fff" opacity="0.5"/></g><g transform="translate(80 -80)"><circle cx="1.5" cy="1.5" r="1.5" transform="translate(35 402)" fill="#fff" opacity="0.5"/></g><g transform="translate(-35 -57)"><circle cx="1.5" cy="1.5" r="1.5" transform="translate(35 402)" fill="#fff" opacity="0.5"/></g><g transform="translate(-12 -57)"><circle cx="1.5" cy="1.5" r="1.5" transform="translate(35 402)" fill="#fff" opacity="0.5"/></g><g transform="translate(11 -57)"><circle cx="1.5" cy="1.5" r="1.5" transform="translate(35 402)" fill="#fff" opacity="0.5"/></g><g transform="translate(34 -57)"><circle cx="1.5" cy="1.5" r="1.5" transform="translate(35 402)" fill="#fff" opacity="0.5"/></g><g transform="translate(57 -57)"><circle cx="1.5" cy="1.5" r="1.5" transform="translate(35 402)" fill="#fff" opacity="0.5"/></g><g transform="translate(80 -57)"><circle cx="1.5" cy="1.5" r="1.5" transform="translate(35 402)" fill="#fff" opacity="0.5"/></g><g transform="translate(-35 -34)"><circle cx="1.5" cy="1.5" r="1.5" transform="translate(35 402)" fill="#fff" opacity="0.5"/></g><g transform="translate(-12 -34)"><circle cx="1.5" cy="1.5" r="1.5" transform="translate(35 402)" fill="#fff" opacity="0.5"/></g><g transform="translate(11 -34)"><circle cx="1.5" cy="1.5" r="1.5" transform="translate(35 402)" fill="#fff" opacity="0.5"/></g><g transform="translate(34 -34)"><circle cx="1.5" cy="1.5" r="1.5" transform="translate(35 402)" fill="#fff" opacity="0.5"/></g><g transform="translate(57 -34)"><circle cx="1.5" cy="1.5" r="1.5" transform="translate(35 402)" fill="#fff" opacity="0.5"/></g><g transform="translate(80 -34)"><circle cx="1.5" cy="1.5" r="1.5" transform="translate(35 402)" fill="#fff" opacity="0.5"/></g><g transform="translate(-35 -11)"><circle cx="1.5" cy="1.5" r="1.5" transform="translate(35 402)" fill="#fff" opacity="0.5"/></g><g transform="translate(-12 -11)"><circle cx="1.5" cy="1.5" r="1.5" transform="translate(35 402)" fill="#fff" opacity="0.5"/></g><g transform="translate(11 -11)"><circle cx="1.5" cy="1.5" r="1.5" transform="translate(35 402)" fill="#fff" opacity="0.5"/></g><g transform="translate(34 -11)"><circle cx="1.5" cy="1.5" r="1.5" transform="translate(35 402)" fill="#fff" opacity="0.5"/></g><g transform="translate(57 -11)"><circle cx="1.5" cy="1.5" r="1.5" transform="translate(35 402)" fill="#fff" opacity="0.5"/></g><g transform="translate(80 -11)"><circle cx="1.5" cy="1.5" r="1.5" transform="translate(35 402)" fill="#fff" opacity="0.5"/></g></g><ellipse cx="124" cy="223" rx="124" ry="223" transform="matrix(0.914, -0.407, 0.407, 0.914, 689, 65.715)" fill="none" opacity="0"/><g transform="translate(677.047 92.288)"><g clip-path="url(#b)"><path d="M250.034,140.3,403.02,113.476,281.6,108.737Z" transform="translate(-93.973 -40.868)" fill="#f9f7ee"/><g clip-path="url(#b)"><g transform="translate(129.335)" opacity="0.8"><g clip-path="url(#d)"><path d="M207.215,0l26.727,99.434,31.564-31.565Z" transform="translate(-207.215 0)" fill="#fff"/></g></g><g transform="translate(0 99.204)" opacity="0.3"><g clip-path="url(#e)"><path d="M4.7,186.338l152.984-26.826,26.726,99.436-58.29-67.872Z" transform="translate(-1.767 -159.155)" fill="none" stroke="#fff" stroke-miterlimit="10" stroke-width="1"/></g></g></g></g></g><ellipse cx="78.457" cy="141.313" rx="78.457" ry="141.313" transform="translate(802.443 -9.461) rotate(25)" opacity="0.063" fill="url(#f)" style="mix-blend-mode:lighten;isolation:isolate"/></g></svg>