<svg xmlns="http://www.w3.org/2000/svg" width="81.264" height="77.795" viewBox="0 0 81.264 77.795"><path d="M74.4,49.04c7.553,13.191,14.121,27.91,9.452,36.646S63.238,97.16,50.553,97.263c-12.715.078-22.22-2.476-29.839-7.984a39.791,39.791,0,0,1-15.62-25c-2.212-11-.829-24.551,7.221-33.583,8.08-9.052,22.8-13.567,34.424-10.009S66.864,35.879,74.4,49.04Z" transform="translate(-4.149 -19.47)" fill="#16262f"/><path d="M115.964,238.9h0c.2-.116.413-.224.645-.332l.032-.015c-.093-.06-.184-.121-.274-.182-.053-.035-.106-.073-.166-.111l-.065-.048c-.274-.192-.536-.391-.778-.587l-.05-.04c-.071-.058-.144-.118-.214-.177-.357-.3-.642-.565-.9-.829-.158-.158-.315-.332-.479-.514-.032-.036-.066-.078-.1-.119l-.04-.05c-.1-.121-.2-.24-.3-.363-.041-.053-.08-.106-.118-.166l-.043-.06c-.075-.1-.156-.211-.232-.32l-.108-.166-.086-.131c-.056-.085-.113-.166-.166-.257-.033-.051-.066-.106-.1-.166l-.071-.118c-.053-.09-.108-.179-.158-.269s-.083-.148-.123-.222l0,0c-.053-.093-.108-.2-.166-.3l-.123-.237-.126-.25a11.432,11.432,0,0,0-1.355-.08,15.685,15.685,0,0,0-6.565,1.607,11.991,11.991,0,0,0,7.042,5.873,25.465,25.465,0,0,0,2.97.551l.02-.022A10.355,10.355,0,0,1,115.964,238.9Z" transform="translate(-87.226 -197.418)" fill="#fff"/><path d="M209.269,283.83h-.036l-.388-.01-.642.02-.166.015h0c-.116.015-.23.033-.332.056l-.053.012-.29.073a5.086,5.086,0,0,0-2.637,1.741,5.694,5.694,0,0,0-1.264,3.368,4.174,4.174,0,0,0,.2,1.459c.8,2.625,3.719,4.741,5,5.562,1.293-.849,4.276-3.036,5.14-5.663a4.438,4.438,0,0,0,.234-1.341,5.218,5.218,0,0,0-1.2-3.386,5.285,5.285,0,0,0-2.577-1.72,4.9,4.9,0,0,0-.529-.126l-.056-.008-.109-.013h-.035c-.091-.015-.176-.028-.255-.036h0Z" transform="translate(-170.409 -239.986)" fill="#fff"/><path d="M291.062,237.642c-.235.189-.486.38-.74.559l-.075.053c-.063.046-.124.091-.189.134l-.2.133.09.041c.26.121.479.232.68.348A10.371,10.371,0,0,1,292.8,240.8l.036.036a25.8,25.8,0,0,0,2.985-.552c3.679-.957,6.051-4.223,7.041-5.87a15.765,15.765,0,0,0-6.578-1.61,11.653,11.653,0,0,0-1.511.1l-.25.489c-.056.1-.108.2-.166.294l-.018.033c-.038.07-.078.141-.119.212s-.088.153-.134.23l-.071.119-.116.192c-.055.086-.113.166-.166.259l-.078.118c-.036.056-.073.111-.113.166-.068.1-.148.207-.225.313l-.061.083c-.035.048-.07.1-.106.143-.095.124-.2.249-.305.373l-.033.041c-.03.038-.061.075-.093.113-.166.181-.322.355-.484.517-.259.26-.546.522-.9.829C291.248,237.5,291.155,237.571,291.062,237.642Z" transform="translate(-242.484 -197.426)" fill="#fff"/><path d="M204.668,199.451l.141.025.237.038a5.263,5.263,0,0,0,.628.051h.269l.507-.035a5.18,5.18,0,0,0,.806-.134l.033-.01a5.86,5.86,0,0,0,4.066-3.922c.075-.229.126-.415.166-.585s.061-.3.085-.454a6.076,6.076,0,0,0,.063-.663,5.632,5.632,0,0,0-.978-3.272,10.056,10.056,0,0,0-.866-1.161,17.658,17.658,0,0,0-3.87-3.28,19.06,19.06,0,0,0-3.893,3.306,7.483,7.483,0,0,0-1.98,3.877,4.169,4.169,0,0,0-.035.5,4.6,4.6,0,0,0,.028.592v.022a5.774,5.774,0,0,0,4.538,5.1Z" transform="translate(-167.563 -158.428)" fill="#fff"/><path d="M150.979,197.308q.194.429.4.871a12.646,12.646,0,0,0,2.333,3.617c.179.181.371.361.572.537.033.03.066.056.1.083l.1.08.045.038c.119.1.239.2.365.3.048.038.1.071.143.1l.166.116c.113.081.224.166.332.24h0a.1.1,0,0,1,0-.02c-.008-.017-.017-.031-.025-.05-.1-.226-.187-.459-.282-.743-.02-.06-.038-.119-.055-.177l-.015-.051c-.056-.186-.108-.38-.151-.574-.02-.085-.036-.166-.051-.237a7.931,7.931,0,0,1-.118-.789,6.805,6.805,0,0,1-.045-.914,6.981,6.981,0,0,1,.051-.753,1.112,1.112,0,0,1,.027-.179.147.147,0,0,1,.012-.07l.01-.055c.02-.136.043-.289.08-.448.018-.08.038-.151.058-.224l.03-.106c.036-.138.073-.277.119-.416.027-.083.058-.166.088-.245l.051-.134c.045-.119.09-.239.141-.36.038-.088.078-.166.116-.252l.038-.08c.066-.138.133-.274.2-.41.05-.093.106-.191.166-.287l.045-.076c.071-.121.143-.244.221-.365s.146-.221.219-.332l.038-.055q-.5-.274-.995-.519a11.017,11.017,0,0,0-4.84-1.083,12.291,12.291,0,0,0-1.766.129,18.2,18.2,0,0,1,1.177,1.978c.31.6.594,1.22.867,1.824Z" transform="translate(-124.898 -164.466)" fill="#fff"/><path d="M272.014,282.179l-.522-.531-.5-.512a8.536,8.536,0,0,0-1.608-1.443,5.185,5.185,0,0,0-2.7-.7h-.421l-.307.025c.1.08.187.166.275.242.023.02.048.045.073.07l.023.023a8.411,8.411,0,0,1,.642.685,7.82,7.82,0,0,1,1.788,5.064,6.247,6.247,0,0,1-.06.779v.053a5.493,5.493,0,0,0,1.209.146h.01a7.662,7.662,0,0,0,5.5-1.88,7.781,7.781,0,0,1-2.124-.995,11.457,11.457,0,0,1-1.262-1.045Z" transform="translate(-222.547 -235.961)" fill="#fff"/><path d="M155.425,285.987c-.012-.108-.02-.207-.027-.307v-.015c0-.06-.01-.118-.012-.177v-.539a8.251,8.251,0,0,1,1.842-4.887,7.547,7.547,0,0,1,.625-.683l.036-.035q.04-.041.08-.08c.093-.086.187-.166.287-.257h0c-.209-.015-.4-.022-.579-.022a5.185,5.185,0,0,0-2.7.7,8.365,8.365,0,0,0-1.613,1.444q-.236.249-.487.5l-.619.627-.015-.008a11.443,11.443,0,0,1-1.171.953,7.923,7.923,0,0,1-2.126.995,7.663,7.663,0,0,0,5.5,1.885h0A5.333,5.333,0,0,0,155.425,285.987Z" transform="translate(-124.939 -235.953)" fill="#fff"/><path d="M276.508,195.011c.07.1.138.211.2.315.083.139.166.275.232.411s.126.227.181.332c.07.139.131.28.192.421l.025.056c.041.093.081.186.118.277.053.136.1.272.143.408l.035.109c.028.085.056.166.08.252.038.133.066.265.1.4l.03.134c.018.08.036.166.05.239.03.166.045.332.06.483v.036a.157.157,0,0,0,.008.063c.008.07.017.138.022.207a7.094,7.094,0,0,1,0,.774,8.745,8.745,0,0,1-.088.935,6.906,6.906,0,0,1-.166.794c-.018.08-.038.151-.058.222-.053.2-.116.4-.187.61l-.017.048-.04.118c-.091.247-.194.489-.3.723-.02.04-.04.081-.061.119v.017l.045-.028c.07-.041.139-.083.206-.128.1-.068.2-.141.3-.212l.2-.141.166-.116c.129-.1.249-.2.368-.3l.058-.048.106-.086.1-.086c.2-.176.4-.363.59-.554a12.519,12.519,0,0,0,2.321-3.582c.166-.347.32-.688.471-1.021l.017-.035c.28-.615.546-1.2.839-1.759a18.218,18.218,0,0,1,1.191-1.972,12.435,12.435,0,0,0-1.779-.129,10.99,10.99,0,0,0-4.827,1.076c-.34.166-.672.332-.995.512l.05.073Z" transform="translate(-231.289 -164.491)" fill="#fff"/></svg>