<svg xmlns="http://www.w3.org/2000/svg" width="81.256" height="80.281" viewBox="0 0 81.256 80.281"><g transform="translate(0 0)"><path d="M84.091,20.923c3.8,8.813-2.819,21.9-7.339,32.986S69.811,74.033,62.568,80.274,43.313,89.9,31.738,86.556,9.06,73.108,5.373,60.341s.076-28.182,9.047-38.168S37.583,7.61,51.807,7.59,80.271,12.112,84.091,20.923Z" transform="translate(-3.968 -7.589)" fill="#16262f"/><path d="M249.2,253.522a3.134,3.134,0,0,0,2.232.628,3.167,3.167,0,0,0,.839-.2,4.7,4.7,0,0,0,.648-.313q.428-.272,1.492-1.056a10.821,10.821,0,0,1,2.479-1.434,4.911,4.911,0,0,1,1.29-.322,5.08,5.08,0,0,1,1.219.02.362.362,0,0,0,.061,0,7.316,7.316,0,0,0-2.782-2.61h0a7.011,7.011,0,0,0-2.743-.88,4.646,4.646,0,0,1-.332.63,5.56,5.56,0,0,1-2.023,2.059.958.958,0,0,1-.1.065h0a2.572,2.572,0,0,1-.358.166,9.49,9.49,0,0,1-3.295.381c-.464.61,1.151,2.691,1.383,2.859Z" transform="translate(-207.316 -207.593)" fill="#fefefe"/><path d="M194.085,271.44a9.41,9.41,0,0,1-2.7,1.928,2.588,2.588,0,0,1-.38.116h0c-.045.01-.085.018-.121.023a5.611,5.611,0,0,1-2.882-.166,5.091,5.091,0,0,1-.663-.249,7.045,7.045,0,0,0-1.441,2.487h0a7.319,7.319,0,0,0-.31,3.8.362.362,0,0,0,.043-.045,5.118,5.118,0,0,1,.889-.829,4.911,4.911,0,0,1,1.172-.627,10.766,10.766,0,0,1,2.8-.6q1.313-.133,1.814-.219a4.765,4.765,0,0,0,.69-.2,3.092,3.092,0,0,0,.759-.411,3.134,3.134,0,0,0,1.23-1.962h0C195.04,274.208,194.843,271.581,194.085,271.44Z" transform="translate(-155.373 -227.689)" fill="#fefefe"/><path d="M245.948,207.45a3.881,3.881,0,0,1-.37.817,6.186,6.186,0,0,1-2.623,2.166h0c-.643.332-1.073.574-1.293.721a2.92,2.92,0,0,0-.887.885,2.283,2.283,0,0,0-.234,1.783h0c.035.141.234,1.033.355,1.58.055.25.095.429.095.429a10.7,10.7,0,0,0,3.3-.438q.111-.045.2-.09h.025a4.82,4.82,0,0,0,1.831-1.869h0l.076-.133a3.709,3.709,0,0,0,.27-.6s0,0,0-.008l.01-.022a5.066,5.066,0,0,0,.262-2.419h.012A5.9,5.9,0,0,0,245.948,207.45Zm-4.384,7.183-.012.017-.017.012Z" transform="translate(-201.241 -174.309)" fill="#fefefe"/><path d="M185.671,244.82h0a2.283,2.283,0,0,0-1.37-1.161,2.9,2.9,0,0,0-1.252-.06q-.39.056-1.443.332h0a6.182,6.182,0,0,1-3.4.156,3.746,3.746,0,0,1-.829-.358,5.923,5.923,0,0,0,1.1,2.764h.013a5.078,5.078,0,0,0,1.824,1.615l.022.01h0a3.788,3.788,0,0,0,.521.232c.075.028.151.053.229.076h0a4.84,4.84,0,0,0,2.613.151h.017a1.591,1.591,0,0,0,.209-.068,10.768,10.768,0,0,0,2.743-1.894l-.222-.39C186.185,245.733,185.737,244.947,185.671,244.82Zm-.181,1.283h0Z" transform="translate(-148.625 -204.429)" fill="#fefefe"/><path d="M251.7,292.44c.478,3.545,2.089,5.991,5.331,6.855l1.849-.711A13.7,13.7,0,0,1,251.7,292.44Z" transform="translate(-210.621 -245.206)" fill="#fefefe"/><path d="M151.373,139.437a8.291,8.291,0,0,1,1.109,1.89,7.959,7.959,0,0,1,.607,2.479.235.235,0,0,1-.459.09,8.669,8.669,0,0,0-3.736-4.693,3.9,3.9,0,0,0-.4-.226c-.139-.06-.275-.139-.415-.2s-.284-.119-.423-.179a3.934,3.934,0,0,0-.433-.153,8.034,8.034,0,0,0-1.781-.363,7.931,7.931,0,0,0-5.132,1.335,7.679,7.679,0,0,0-1.366,1.174,7.994,7.994,0,0,0-1.076,1.463c-.08.131-.146.269-.219.4a4.324,4.324,0,0,0-.192.418c-.058.141-.121.284-.166.428s-.1.292-.148.439a8.681,8.681,0,0,0,.388,6,.236.236,0,1,1-.406.242,7.914,7.914,0,0,1-1.222-2.255,8.218,8.218,0,0,1-.453-2.209,8.017,8.017,0,0,0,3.839,15.292q.083-.126.166-.249a7.412,7.412,0,0,1-1.512-1.585.974.974,0,0,1-.1-.128,8.457,8.457,0,0,1-1.462-3.648,1.215,1.215,0,0,1,.318-1.05,1.161,1.161,0,0,1,1.416-.181,3.237,3.237,0,0,0,.628.313l.09.028a5.418,5.418,0,0,0,3-.128l.043-.01a16.569,16.569,0,0,1,1.658-.361h.01a4.2,4.2,0,0,1,1.882.154h.012A3.834,3.834,0,0,1,147.6,155.9c.01.018.018.038.028.058.076.143.269.5.488.884-.1-.438-.192-.829-.23-.983a.287.287,0,0,0-.018-.061,3.83,3.83,0,0,1,.308-2.887V152.9a4.218,4.218,0,0,1,1.29-1.378h0a15.863,15.863,0,0,1,1.471-.846l.041-.023a5.4,5.4,0,0,0,2.312-1.922c.013-.027.03-.055.045-.081a2.994,2.994,0,0,0,.257-.653,1.161,1.161,0,0,1,.693-.74,1.149,1.149,0,0,1,.484-.076,1.22,1.22,0,0,1,.939.569,8.457,8.457,0,0,1,1.36,3.68,1.085,1.085,0,0,1,.008.166,7.36,7.36,0,0,1-.058,2.19,8.174,8.174,0,0,1,.829.226,8.017,8.017,0,0,0-6.487-14.57Z" transform="translate(-109.738 -116.418)" fill="#fdfdfd"/></g></svg>