<svg xmlns="http://www.w3.org/2000/svg" width="82.364" height="82.533" viewBox="0 0 82.364 82.533"><g transform="translate(0)"><path d="M43.957.153c10.67,1.36,19.663,11.753,26.836,22.195s12.534,20.9,11.5,31.689S73.836,75.955,63.781,80.288s-22.744,1.935-35.092-3.227-24.375-13.068-27.663-24,2.139-24.873,11.037-35.7S33.288-1.183,43.957.153Z" transform="translate(-0.056 -0.003)" fill="#16262f"/><path d="M404.644,212.17h-.524" transform="translate(-337.119 -176.989)" fill="none"/><path d="M100.308,168.382s4.5,1.043,9.256-3.21c0,0-12.256-17.494-6.6-28.935a21.885,21.885,0,0,1,11.551,6.059s-.177-7.374-6.828-9.549a12.161,12.161,0,0,1,5.787-.759s-2.87-4.225-11.579-1.786c0,0-6.427-6.964-15.753-1.562,0,0,7.477-.027,11.34,2.756,0,0-10.281.124-15.421,5.656,0,0,10.281-2.363,15.5-1.23C97.564,135.82,92.228,156.922,100.308,168.382Z" transform="translate(-68.462 -105.595)" fill="#fff"/><path d="M318.9,316.626a15.78,15.78,0,0,1-2.122-1.086,15.6,15.6,0,0,1,2.122,1.086Z" transform="translate(-264.261 -263.218)" fill="#fff"/><path d="M226.093,201.674a20.3,20.3,0,0,0-.839-4.888,15.65,15.65,0,0,1,17.373,21.8,15.731,15.731,0,0,1-9.354-.846,15.4,15.4,0,0,0-2.121-1.086,15.671,15.671,0,0,0-13.527.708c-.647-1.262-1.312-2.678-1.927-4.192a38.172,38.172,0,0,1-2.008-6.422,15.688,15.688,0,0,1,6.067-7.686,15.805,15.805,0,0,1,4.572,3.419,1.033,1.033,0,0,0,1.764-.809Z" transform="translate(-178.266 -163.893)" fill="#fff"/><path d="M318.9,316.626a15.78,15.78,0,0,1-2.122-1.086,15.6,15.6,0,0,1,2.122,1.086Z" transform="translate(-264.261 -263.218)" fill="#fff"/><path d="M318.9,316.626a15.78,15.78,0,0,1-2.122-1.086,15.6,15.6,0,0,1,2.122,1.086Z" transform="translate(-264.261 -263.218)" fill="#fff"/></g></svg>