<svg xmlns="http://www.w3.org/2000/svg" width="77.615" height="82.422" viewBox="0 0 77.615 82.422"><g transform="translate(0)"><path d="M63.527,6.21c10.221,6.8,14.942,19.59,18.364,32.711s5.557,26.544-.095,34.535-19.12,10.521-30.733,9.322A47.684,47.684,0,0,1,21.686,68.7c-8.031-7.963-14.312-18.961-14-31.28s7.23-25.964,18.55-32.389S53.3-.584,63.527,6.21Z" transform="translate(-7.674 -0.638)" fill="#16262f"/><path d="M269.664,224.348a1.265,1.265,0,0,0-1.262-1.259,1.237,1.237,0,0,0-.628.166l-10.281,5.953a1.267,1.267,0,0,0-.628,1.088l-.025,11.887a1.252,1.252,0,0,0,.363.889,1.28,1.28,0,0,0,.9.376,1.245,1.245,0,0,0,.627-.166l10.329-5.948a1.263,1.263,0,0,0,.63-1.094Z" transform="translate(-215.524 -186.203)" fill="#fdfdfd"/><path d="M177.9,229.345l-1.081-.622c-3-1.459-3.494-.3-3.494,1.161s.519,5.676-1.846,4.9c-1.955-.64.03-4.975-.408-6.845a8.218,8.218,0,0,0-2.728-4.1l-.779-.449a1.248,1.248,0,0,0-.627-.166,1.278,1.278,0,0,0-.9.375,1.244,1.244,0,0,0-.363.889l.025,11.887a1.262,1.262,0,0,0,.628,1.088l10.281,5.953a1.237,1.237,0,0,0,.628.166,1.265,1.265,0,0,0,1.262-1.259l.023-11.889A1.262,1.262,0,0,0,177.9,229.345Z" transform="translate(-139.48 -186.32)" fill="#fdfdfd"/><path d="M196.659,160.746l-11.377-6.56a1.39,1.39,0,0,0-1.388,0l-11.339,6.556a1.386,1.386,0,0,0,0,2.4l11.388,6.56a1.391,1.391,0,0,0,1.386,0l11.327-6.555a1.386,1.386,0,0,0,0-2.4Z" transform="translate(-144.636 -128.57)" fill="#fdfdfd"/></g></svg>