<svg xmlns="http://www.w3.org/2000/svg" width="82.462" height="82.338" viewBox="0 0 82.462 82.338"><g transform="translate(0 0)"><path d="M71.654,18.237C79.811,29.959,84.588,45.8,81.379,57.976S67,78.673,56.906,81.356,37.744,80.8,26.8,76.576,3.022,67.164.435,57.817,5.529,34.964,13.9,23.176,31.33,1.346,41.624.125,63.5,6.509,71.654,18.237Z" transform="translate(0.075 0.003)" fill="#16262f"/><path d="M341.26,161.08v.373" transform="translate(-284.661 -134.369)" fill="none"/><path d="M148.557,132.209c-1.144,1.37,3.558,9.044,14.527,14.305,0,0-.073,6-1.327,6.893s7.782,4,10.08,3.633c0,0-2.156-8-1.637-9.636,0,0,9.962.592,14.831-11.939.239-1.177-.982-2.132-1.9-1.013s-3.031,3.814-6.357,3.623-2.6-1.449-5.436-1.449-3.262,1.779-3.262,1.779a4.217,4.217,0,0,0-3-2.4c-2.3-.527-4.414,1.449-7.51.758a9.9,9.9,0,0,1-6.062-3.92C150.38,131.3,148.977,131.707,148.557,132.209Z" transform="translate(-123.772 -109.908)" fill="#fff"/><path d="M116.144,273.291a.274.274,0,0,1-.305-.446,13.782,13.782,0,0,1,9.422-4.205c6.687,0,10.574,5.5,19.765,5.5a33.322,33.322,0,0,0,13.411-2.578.746.746,0,0,1,1.046.754c-.371,3.792-2.663,14.532-16.716,14.532-8.54,0-10.974-5.848-17.577-5.222a.378.378,0,0,1-.235-.7,6.608,6.608,0,0,1,3.86-.857c3.59.166,6.848,2.638,11.36,2.638s4.47-1.963,4.47-1.963a10.107,10.107,0,0,1-6.9-.043c-4.185-1.318-9.346-8.538-15.421-8.538A14.7,14.7,0,0,0,116.144,273.291Z" transform="translate(-96.547 -224.094)" fill="#fff"/></g></svg>