<svg xmlns="http://www.w3.org/2000/svg" width="76.939" height="73.203" viewBox="0 0 76.939 73.203"><path d="M84.34,56.2c6.586,11,12.077,20.185,10.246,27.484S83.609,96.412,74.767,99.532a46.233,46.233,0,0,1-27.445,1.559c-10.092-2.388-21.8-7.959-26.675-18.24s-2.928-25.309,5.14-36.646S48.054,27.191,59.033,29.771,77.734,45.179,84.34,56.2Z" transform="translate(-18.003 -29.27)" fill="#16262f"/><g transform="translate(33.675 18.963)"><path d="M248.457,254.072a5.691,5.691,0,0,0-7.122-3.583c-.862.259-.862.259-.985-.663-.126-.947-.481-1.29-1.443-1.3-3.124-.012-6.246,0-9.37-.01-.323,0-.363.1-.3.39q.459,2.177.867,4.356c.055.29.166.318.421.265.623-.133,1.255-.222,1.874-.373.323-.078.441-.027.509.32.38,1.968.781,3.933,1.191,5.9.061.3,0,.429-.307.5-1.99.388-3.966.781-5.945,1.194-.31.066-.41,0-.469-.305q-.587-3-1.21-5.991c-.058-.28.025-.368.28-.413.517-.095,1.026-.232,1.545-.308.395-.06.438-.25.365-.594-.284-1.338-.546-2.681-.817-4.021-.176-.867-.212-.9-1.089-.9h-4.587a.778.778,0,0,0-.726,1.053l5.794,15.255a.778.778,0,0,0,.776.5,20.6,20.6,0,0,0,3.3-.468,11.454,11.454,0,0,0,7.462-4.825c.209-.318.32-.312.594-.058a5.522,5.522,0,0,0,5.878,1.313A5.671,5.671,0,0,0,248.457,254.072Zm-3.081,1.894A2.321,2.321,0,1,1,243.1,253.6a2.377,2.377,0,0,1,2.272,2.361Z" transform="translate(-221.086 -231.127)" fill="#fff"/><path d="M235.3,143.63c1.559,2.779,1.38,6.187-1.532,8.18a10.1,10.1,0,0,1-2.01,1.089,5.329,5.329,0,0,0-3.648,5.242c-.02,1.136-.02,1.136-1.171,1.136-.685,0-1.37-.022-2.053,0-.378.017-.5-.113-.5-.481-.083-3.578,1.128-6.417,4.532-8.024.849-.4,1.683-.829,2.532-1.234a6.137,6.137,0,0,0,3.814-5.55A3.286,3.286,0,0,1,235.3,143.63Z" transform="translate(-223.839 -143.63)" fill="#fff"/><path d="M282.633,192.31a5.106,5.106,0,0,1,1.161,3.549,2.179,2.179,0,0,1-1.186,1.527c-.36.232-.749.418-1.1.663a2,2,0,0,0-.987,1.552c-.015.229-.124.289-.332.289q-1.529-.012-3.056,0c-.265,0-.32-.113-.313-.345a3.671,3.671,0,0,1,2.119-3.555,10.211,10.211,0,0,1,1.086-.486C281.565,195,282.7,194.167,282.633,192.31Z" transform="translate(-267.576 -184.238)" fill="#fff"/></g><g transform="translate(15.582 22.632)"><path d="M111.98,180.058c.555-6.286,3.494-11.029,9.12-14.032.149-.08.313-.133.464-.209a.608.608,0,0,1,.846.555.691.691,0,0,1-.282.633,3.693,3.693,0,0,1-.488.289,15.2,15.2,0,0,0-3.557,24.5,14.387,14.387,0,0,0,8.014,3.98,15.039,15.039,0,0,0,6.051-.227,2.882,2.882,0,0,1,.713-.123.71.71,0,0,1,.693.579.635.635,0,0,1-.436.685,10.129,10.129,0,0,1-1.942.453,16.519,16.519,0,0,1-19.086-14.506,20.449,20.449,0,0,1-.111-2.575Z" transform="translate(-111.975 -165.758)" fill="#fff"/><path d="M129.678,232.919a13.451,13.451,0,0,1,.5-3.205,1.327,1.327,0,0,1,.431-.7,1.048,1.048,0,0,1,1.011-.194,11.317,11.317,0,0,1,1.524.619c2.446,1.1,4.888,2.21,7.319,3.348a1.06,1.06,0,0,1,.381.267c.166.207.154.355-.071.5a3.768,3.768,0,0,1-.663.332c-2.031.829-4.094,1.574-6.145,2.348-.776.292-1.557.574-2.335.859a1.23,1.23,0,0,1-.934,0,1.1,1.1,0,0,1-.68-.758,11.043,11.043,0,0,1-.332-2.421A9.576,9.576,0,0,1,129.678,232.919Z" transform="translate(-126.734 -218.314)" fill="#fff"/><path d="M188.052,281.992a13,13,0,0,1-3.053-.449,1.262,1.262,0,0,1-.935-.7,1.041,1.041,0,0,1-.04-.725,16.92,16.92,0,0,1,.819-2.011q1.562-3.442,3.131-6.88a1.131,1.131,0,0,1,.166-.287.416.416,0,0,1,.754.124q.953,2.487,1.9,4.975.746,1.977,1.484,3.961a1.449,1.449,0,0,1,.063.809,1.06,1.06,0,0,1-.808.866,10.058,10.058,0,0,1-1.776.3A12.418,12.418,0,0,1,188.052,281.992Z" transform="translate(-172.038 -253.342)" fill="#fff"/><path d="M139.1,270.045a1.088,1.088,0,0,1,.693-1.018c2.177-.905,4.384-1.726,6.591-2.55.819-.305,1.638-.614,2.472-.879.186-.06.386-.136.554.022s.081.37.02.551c-.332.934-.746,1.824-1.161,2.721q-1.365,3.015-2.749,6.021a1.152,1.152,0,0,1-1.764.562,12.438,12.438,0,0,1-2.8-2.4,13.151,13.151,0,0,1-1.642-2.288A1.317,1.317,0,0,1,139.1,270.045Z" transform="translate(-134.601 -248.983)" fill="#fff"/><path d="M141.64,189.191a1.466,1.466,0,0,1,.242-.771,11.773,11.773,0,0,1,1.865-2.262,13.431,13.431,0,0,1,2.761-2.114,1.277,1.277,0,0,1,1.083-.182,1.106,1.106,0,0,1,.7.637c.95,2.311,1.809,4.659,2.685,7,.252.663.507,1.343.7,2.035a2.081,2.081,0,0,1,.055.249c.025.143.051.289-.1.39a.431.431,0,0,1-.458.045c-1.419-.632-2.842-1.254-4.258-1.892-1.492-.663-2.968-1.355-4.454-2.03A1.27,1.27,0,0,1,141.64,189.191Z" transform="translate(-136.721 -180.812)" fill="#fff"/></g></svg>