<svg xmlns="http://www.w3.org/2000/svg" width="78.669" height="81.288" viewBox="0 0 78.669 81.288"><g transform="translate(0 0)"><path d="M86.9,22.871c6.619,9.286,5.822,25.039-.751,38.228-6.6,13.2-18.933,23.826-32.533,26.136S25.2,83.549,18.3,73.834,12.5,50.7,13.765,38.314C15.027,25.9,16.5,14.537,22.92,9.631c6.439-4.875,17.844-3.262,30.559-1.065C66.2,10.795,80.261,13.587,86.9,22.871Z" transform="translate(-12.824 -6.443)" fill="#16262f"/><path d="M151.108,210.791a6.766,6.766,0,0,0,3.552-7.369,10.405,10.405,0,0,0-7.735-7.793,10.2,10.2,0,0,1-3.151-1.179,10.506,10.506,0,0,1-2.487,2.287,10.405,10.405,0,0,0-4.208,10.143,6.763,6.763,0,0,0,6.079,5.472,4.434,4.434,0,0,1,3.426,2.454c.06.124.111.247.166.37l.043.114c.03.081.058.166.083.242.015.041.027.081.04.121.023.078.043.153.063.225a.456.456,0,0,0,.025.1c.025.1.045.186.061.27v.02l.086-.013a17.641,17.641,0,0,0,1.736-.332l.083-.022v-.01a6.378,6.378,0,0,1-.091-.686,1.447,1.447,0,0,0-.01-.166,5.786,5.786,0,0,1,0-.678A4.437,4.437,0,0,1,151.108,210.791Zm1.449-7.742a.5.5,0,0,1-.391.584l-.977.194a.5.5,0,1,1-.192-.977l.977-.184a.5.5,0,0,1,.584.386Zm-3.038-2.627.75-.655a.5.5,0,0,1,.663.75l-.751.663a.486.486,0,0,1-.23.113.5.5,0,0,1-.423-.862Zm.912,5.583a.5.5,0,0,1,.632-.31l.942.322a.5.5,0,0,1-.317.944h0l-.948-.315a.5.5,0,0,1-.308-.64Zm-11.543-.265a.5.5,0,0,1,.393-.585l.977-.191a.5.5,0,1,1,.191.975l-.975.192a.5.5,0,0,1-.585-.391Zm3.036,2.63-.749.653a.5.5,0,0,1-.655-.75l.749-.653a.5.5,0,1,1,.663.745Zm-.912-5.583a.5.5,0,0,1-.375.332.484.484,0,0,1-.257-.018l-.944-.327a.5.5,0,0,1,.332-.937l.942.322a.5.5,0,0,1,.31.63Zm.126-3.638a.5.5,0,0,1,.7.048l.653.749a.5.5,0,0,1-.745.663h0l-.655-.763a.5.5,0,0,1,.046-.7Zm.677,6.014a.5.5,0,0,1,.391-.584l.977-.192a.5.5,0,0,1,.192.977l-.977.192a.5.5,0,0,1-.58-.393Zm2.605,4.572-.322.942a.5.5,0,1,1-.944-.315h0l.322-.942a.5.5,0,1,1,.942.322Zm.332-3-.555.829a.5.5,0,0,1-.829-.541l.01-.013.555-.829a.5.5,0,0,1,.829.541Zm-.672-3.452a.5.5,0,0,1-.691.136l-.829-.554a.5.5,0,1,1,.554-.829l.829.554a.5.5,0,0,1,.138.693Zm-.085-5.14a.5.5,0,1,1,.977-.192l.192.977a.5.5,0,1,1-.977.192Zm.575,2.928a.5.5,0,1,1,.977-.191l.192.977a.5.5,0,0,1-.977.191Zm2.9,9.573a.5.5,0,1,1-.977.191l-.192-.975a.5.5,0,0,1,.977-.192Zm-.577-2.93a.5.5,0,0,1-.975.192l-.192-.977a.5.5,0,0,1,.977-.192Zm3.421,1.927a.5.5,0,0,1-.7-.048l-.663-.749a.5.5,0,0,1,.75-.655l.655.75a.5.5,0,0,1-.048.7Zm-.675-6.016a.5.5,0,0,1-.393.585l-.975.191a.5.5,0,1,1-.192-.975l.977-.192a.5.5,0,0,1,.575.391Zm-2.605-4.57.322-.942a.5.5,0,1,1,.944.315h0l-.322.942a.5.5,0,1,1-.942-.322Zm-.332,3,.555-.829a.5.5,0,1,1,.829.541.068.068,0,0,1,0,.015l-.555.829a.5.5,0,0,1-.829-.539Zm.814,4.145a.5.5,0,1,1,.541-.829l.013.008.829.555a.5.5,0,0,1-.541.829l-.015-.01Z" transform="translate(-116.36 -163.275)" fill="#fefefe"/><path d="M124.747,157.377a6.067,6.067,0,0,1-3.517-2.064,4.51,4.51,0,0,1-.688-1.114,2.869,2.869,0,0,0-2.132.42,4.545,4.545,0,0,1-.216,1.293,6.074,6.074,0,0,1-2.474,3.242,15.465,15.465,0,0,0-6.135,15.215c1.219,6.2,6.765,9.941,13.557,9.422a5.625,5.625,0,0,0-.408-1.229,3.663,3.663,0,0,0-2.807-2.045,8.354,8.354,0,0,1-7.274-6.752,12.273,12.273,0,0,1,4.809-11.939,9.653,9.653,0,0,0,2.321-2.2,1.036,1.036,0,0,1,1.366-.269,9.617,9.617,0,0,0,2.985,1.161,12.293,12.293,0,0,1,8.966,9.236,8.356,8.356,0,0,1-4.177,9,3.663,3.663,0,0,0-1.824,2.953,5.731,5.731,0,0,0,.088,1.293c6.485-2.091,10.2-7.653,8.982-13.851A15.42,15.42,0,0,0,124.747,157.377Z" transform="translate(-93.329 -129.653)" fill="#fefefe"/><path d="M270.188,155.766l.829-5.361q-2.782,5.363-3.038,7.2t-.63,4.164a29.448,29.448,0,0,1-1.8,6.745q-.433.995-1.4,2.908-.9-1.056-1.695-2.031,3.837-6.618,3.638-9.949v-.02a3.406,3.406,0,0,0-.03-.352,15.365,15.365,0,0,0-2.849-7.878,13.988,13.988,0,0,0-1.287-1.675,20.512,20.512,0,0,1,6.319-5.729h.02a23.685,23.685,0,0,1,11.166-3.5,1.279,1.279,0,0,1-.1.153,13.68,13.68,0,0,0-1.781,3.043q-1.841,4.258-.458,11.871.675,3.741.829,5.182a9.839,9.839,0,0,1-.663,4.447,9.159,9.159,0,0,1-4.91,4.772h-.02a35.092,35.092,0,0,1-6,1.453c.4-.829.7-1.477.9-1.97a31.686,31.686,0,0,0,1.92-7.175v.02Q269.763,158.595,270.188,155.766Z" transform="translate(-220.615 -118.096)" fill="#fefefe" fill-rule="evenodd"/></g></svg>