<svg xmlns="http://www.w3.org/2000/svg" width="80" height="76.227" viewBox="0 0 80 76.227"><g transform="translate(0)"><path d="M74.938,22.8c7.082,8.613,7.549,22.778,3.484,34.067C74.376,68.134,65.786,76.522,55.149,82.248s-23.315,8.867-34.11,4.886S1.316,72.092,1,61.635C.681,51.2,8.941,41.375,16.946,32.538S32.688,15.853,43.412,13.47,67.855,14.167,74.938,22.8Z" transform="translate(-0.993 -12.691)" fill="#16262f"/><path d="M186.259,187.526a8.063,8.063,0,0,1,5.379,2.058,6.921,6.921,0,1,0-9.331-1.022A8.025,8.025,0,0,1,186.259,187.526Zm-2.053-6.207a1.078,1.078,0,0,1,.391-.366,2.468,2.468,0,0,1,1.01-.332.983.983,0,0,1,.332.027,3.847,3.847,0,0,1,.862.3.706.706,0,0,0,.6,0,1.961,1.961,0,0,0,.4-.219,2.234,2.234,0,0,1,.365-.214.879.879,0,0,1,.559-.056.919.919,0,0,1,.683.693,1.209,1.209,0,0,1-.07.817,2.436,2.436,0,0,1-.332.537,2.566,2.566,0,0,0-.177.26.426.426,0,0,0-.013.406.887.887,0,0,0,.277.315c.114.093.232.181.343.279a1.1,1.1,0,0,1,.4.844.94.94,0,0,1-.421.8,1.221,1.221,0,0,1-.625.216,2.653,2.653,0,0,1-1.4-.29c-.131-.063-.259-.131-.385-.2a.544.544,0,0,0-.57.008,1.785,1.785,0,0,0-.355.265c-.138.131-.27.267-.406.4a3.485,3.485,0,0,1-.36.322.564.564,0,0,1-.264.124.415.415,0,0,1-.448-.234,1.492,1.492,0,0,1-.149-.456,1.846,1.846,0,0,1-.023-.345,2.887,2.887,0,0,1,.274-1.2,6.507,6.507,0,0,1,.313-.6c.045-.08.083-.166.129-.242a.439.439,0,0,0-.046-.522,1.4,1.4,0,0,0-.489-.42c-.085-.045-.166-.09-.249-.141a.531.531,0,0,1-.161-.778Z" transform="translate(-151.943 -150.849)" fill="#fefefe"/><path d="M260.853,234.74a7.241,7.241,0,0,0-1.267.114,6.923,6.923,0,0,1-2.726,4.512,8.057,8.057,0,0,1,1.967,9.319,7.12,7.12,0,1,0,2.026-13.945Zm3.63,4.046c-.131.075-.274.128-.41.194-.045.022-.1.035-.121.081l.25.264a1.364,1.364,0,0,1,.332.554.517.517,0,0,1-.322.652.811.811,0,0,1-.4.032,1.584,1.584,0,0,1-.609-.264c-.114-.073-.226-.153-.345-.219-.166-.095-.222-.076-.305.1a1.708,1.708,0,0,1-.191.345.8.8,0,0,1-.557.332.506.506,0,0,1-.461-.214.768.768,0,0,1-.136-.73,1.549,1.549,0,0,1,.073-.182c.088-.186.083-.24-.078-.378-.123-.106-.257-.2-.385-.3a.562.562,0,0,1,.078-.983,1.093,1.093,0,0,1,.395-.095,1.074,1.074,0,0,0,.166-.02.3.3,0,0,0,.245-.287,1.27,1.27,0,0,1,.264-.683.383.383,0,0,1,.615-.033,1.068,1.068,0,0,1,.216.345,2.716,2.716,0,0,0,.209.438.221.221,0,0,0,.227.116c.114-.015.23-.025.345-.045a1.245,1.245,0,0,1,.811.1.759.759,0,0,1,.187.126.449.449,0,0,1-.091.748Z" transform="translate(-215.968 -199.328)" fill="#fefefe"/><path d="M176.142,254.438c-.081-.073-.166-.144-.25-.216l-.1-.078-.158-.124-.131-.1-.128-.091-.158-.108-.1-.061-.191-.121h-.012c-.119-.073-.242-.141-.365-.207l-.045-.032c-.121-.065-.245-.126-.371-.184l-.015-.008h0a8.064,8.064,0,1,0,2.016,1.327Zm-4.008,9.332a4.407,4.407,0,0,1-.242.718,1,1,0,0,1-.8.615,2.319,2.319,0,0,1-.695,0,4.216,4.216,0,0,0-.736-.046,1.535,1.535,0,0,0-.3.051.919.919,0,0,0-.448.332,1.891,1.891,0,0,1-.23.244.562.562,0,0,1-.754.027.83.83,0,0,1-.232-.315,1.492,1.492,0,0,1-.108-.448,5.954,5.954,0,0,0-.075-.663,1,1,0,0,0-.245-.474,3.541,3.541,0,0,0-.352-.317,2.068,2.068,0,0,1-.71-1.063,1,1,0,0,1,.1-.808.817.817,0,0,1,.431-.356,2.046,2.046,0,0,1,.537-.116,2.322,2.322,0,0,0,.95-.264,2.7,2.7,0,0,0,.829-.7,1.739,1.739,0,0,1,.995-.617,1.174,1.174,0,0,1,1.3.564.809.809,0,0,1,.128.464,1.721,1.721,0,0,1-.1.5,1.843,1.843,0,0,0-.081.434,1.211,1.211,0,0,0,.046.37,4.414,4.414,0,0,0,.265.73,1.309,1.309,0,0,0,.226.322,1.9,1.9,0,0,1,.194.235A.7.7,0,0,1,172.135,263.771Z" transform="translate(-136.919 -214.193)" fill="#fefefe"/><path d="M264.767,155.6a10.447,10.447,0,0,1,8.059-.154,13.2,13.2,0,0,0,2.5-7.747v-1.1a.237.237,0,0,0-.431-.134,5.018,5.018,0,0,1-4.346,2.006,11.551,11.551,0,0,0-8.278,3.935,7.553,7.553,0,0,1,1.608,3.588Z" transform="translate(-220.557 -124.988)" fill="#fefefe"/><path d="M288.5,216.381l-.352-.8a10.475,10.475,0,0,0-13.806-5.374l-.166.07c.086.227-.086.995,0,1.521.3-.036,1.607-.073,1.914-.073a7.447,7.447,0,0,1,7.084,5.232,7.181,7.181,0,0,0,1.27-.413,3.97,3.97,0,0,1,3.782.07.187.187,0,0,0,.274-.234Z" transform="translate(-230.572 -177.846)" fill="#fefefe"/></g></svg>