<svg xmlns="http://www.w3.org/2000/svg" width="81.333" height="81.375" viewBox="0 0 81.333 81.375"><g transform="translate(0 0)"><path d="M55.086,4.093c11.349-.829,23.75,11.019,27.5,23.616s-1.161,25.944-6.694,35.769-11.7,16.124-19.21,19.4-16.365,3.471-27.541.136C17.939,79.657,4.427,72.709,3.029,63.6S2.9,33.688,13.412,21.289C23.95,8.915,43.739,4.917,55.086,4.093Z" transform="translate(-2.561 -4.053)" fill="#16262f"/><path d="M183.3,152.716a10.417,10.417,0,0,0-12.542.69,10.408,10.408,0,0,0-4.388-10.975,10.413,10.413,0,0,0-2.932,11.451,10.41,10.41,0,0,0-12.526.935A10.418,10.418,0,0,0,161,160.63a10.415,10.415,0,0,0-4.477,10.748,10.4,10.4,0,0,0,11.1-9.669,10.4,10.4,0,0,0,12.256,8.155,10.413,10.413,0,0,0-5.832-10.08,10.415,10.415,0,0,0,9.256-7.069Zm-14.166,5.494a13.471,13.471,0,0,1,1.021,1.862c-.944.252-2.776-.788-2.776-.788a6.88,6.88,0,0,1-2.215,1.391,8.068,8.068,0,0,1,.166-1.932,7.159,7.159,0,0,1-1.4-1.7,3.974,3.974,0,0,1,2.028-.547,4.454,4.454,0,0,1,1.1-2.26,3.882,3.882,0,0,1,1.179,1.919,9.408,9.408,0,0,1,2.628.2C170.795,156.84,169.132,158.209,169.132,158.209Z" transform="translate(-126.311 -119.485)" fill="#fff"/><path d="M114.925,231.944c-.212.37,1.914,2.126,2.637,2.321s8.8,2.507,9.75,2.446a1.88,1.88,0,0,0,1.492-.808s-3.5-1.074-4.263-1.854c0,0-7.86-2.567-8.686-2.514S115.144,231.582,114.925,231.944Z" transform="translate(-96.281 -193.815)" fill="#fff"/><path d="M110.414,272.8c-.23.544-.176.958.186,1.053a18.8,18.8,0,0,0,3.636,1.3c1.555.255,7.959-1.462,7.959-1.462a6.738,6.738,0,0,1,1.106-3.031s-4.749,1.61-5.558,1.9a10.156,10.156,0,0,1-2.917.663c-.479-.086-2.018-.106-2.394-.436A2.446,2.446,0,0,0,110.414,272.8Z" transform="translate(-92.415 -226.452)" fill="#fff"/><path d="M317.13,248.882a10.433,10.433,0,0,1,1.353,2.635,13.823,13.823,0,0,1,3.7-1.3c1.3-.083,7.352.232,8.964-.464s2.738-1.6,2.708-2.069-1.114-.756-2.726-.06-5.658.368-6.978.1a12.53,12.53,0,0,0-4.613.063C318.732,248.07,317.13,248.882,317.13,248.882Z" transform="translate(-264.969 -206.883)" fill="#fff"/><path d="M327,277l.483,2.048s5.548,3.427,7.568,3.534,4.029.093,4.126-.269-.534-.912-1.852-1.181S328.492,277,327,277Z" transform="translate(-273.202 -231.741)" fill="#fff"/><ellipse cx="0.746" cy="0.746" rx="0.746" ry="0.746" transform="translate(26.604 53.55)" fill="#fff"/><ellipse cx="0.415" cy="0.415" rx="0.415" ry="0.415" transform="translate(26.935 49.405)" fill="#fff"/><ellipse cx="0.415" cy="0.415" rx="0.415" ry="0.415" transform="translate(22.458 28.843)" fill="#fff"/><ellipse cx="0.415" cy="0.415" rx="0.415" ry="0.415" transform="translate(37.714 52.721)" fill="#fff"/><ellipse cx="0.415" cy="0.415" rx="0.415" ry="0.415" transform="translate(53.3 54.379)" fill="#fff"/><ellipse cx="0.415" cy="0.415" rx="0.415" ry="0.415" transform="translate(53.466 28.512)" fill="#fff"/><ellipse cx="0.415" cy="0.415" rx="0.415" ry="0.415" transform="translate(43.517 54.048)" fill="#fff"/><ellipse cx="0.415" cy="0.415" rx="0.415" ry="0.415" transform="translate(62.42 34.315)" fill="#fff"/><ellipse cx="0.746" cy="0.746" rx="0.746" ry="0.746" transform="translate(41.03 48.078)" fill="#fff"/><ellipse cx="0.746" cy="0.746" rx="0.746" ry="0.746" transform="translate(46.668 52.721)" fill="#fff"/><ellipse cx="0.746" cy="0.746" rx="0.746" ry="0.746" transform="translate(56.948 50.731)" fill="#fff"/><ellipse cx="0.746" cy="0.746" rx="0.746" ry="0.746" transform="translate(33.734 56.037)" fill="#fff"/></g></svg>