<svg xmlns="http://www.w3.org/2000/svg" width="82.895" height="82.323" viewBox="0 0 82.895 82.323"><g transform="translate(0 0)"><path d="M73.345,9.687c9.783,10.307,12.387,32.335,6.538,47.349-5.825,15.04-20.1,23.035-32.089,25.868s-21.659.434-29.753-4.761C9.924,72.918,3.381,64.841,1.06,54.882A43.231,43.231,0,0,1,6.054,23.965C11.506,14.882,20.532,8.544,33.56,4.682S63.538-.62,73.345,9.687Z" transform="translate(-0.078 -1.785)" fill="#16262f"/><path d="M319.723,189.38l1.7,2.9,2.9,1.7-2.9,1.7-1.7,2.9-1.7-2.9-2.9-1.7,2.9-1.7Z" transform="translate(-262.88 -158.273)" fill="#fff"/><path d="M349.028,128.21l.9,1.524,1.522.9-1.522.9-.9,1.522-.9-1.522-1.522-.9,1.522-.9Z" transform="translate(-289.149 -107.247)" fill="#fff"/><path d="M153.11,260.35l1.423,2.418,2.419,1.423-2.419,1.423-1.423,2.419-1.423-2.419-2.418-1.423,2.418-1.423Z" transform="translate(-124.531 -217.475)" fill="#fff"/><path d="M195.183,152.725l-.537-1.511a.272.272,0,0,0-.35-.166l-1.547.549a.507.507,0,0,0,.055-.415c-.055-.181-.114-.361-.177-.541a12.147,12.147,0,0,0-5.671-6.721,8.849,8.849,0,0,1-4.068-4.895h0a9,9,0,0,1,.095-6.434,12.23,12.23,0,0,0-.081-9.253.509.509,0,0,0-.305-.289l1.335-.474a.274.274,0,0,0,.166-.35l-.537-1.511a.275.275,0,0,0-.35-.166l-21.235,7.55a.275.275,0,0,0-.166.352l.537,1.511a.272.272,0,0,0,.35.166l1.547-.551a.511.511,0,0,0-.055.415c.055.181.113.361.177.542a12.151,12.151,0,0,0,5.669,6.721,8.851,8.851,0,0,1,4.069,4.895,9,9,0,0,1-.095,6.434,12.225,12.225,0,0,0,.08,9.251.514.514,0,0,0,.307.29l-1.335.474a.273.273,0,0,0-.166.35l.537,1.511a.275.275,0,0,0,.35.166l21.235-7.553a.272.272,0,0,0,.166-.348Zm-6.493-2.4-11.949,4.237a.632.632,0,0,1-.841-.524,8.971,8.971,0,0,1,.607-4.411,11.749,11.749,0,0,0,.3-7.895h4.344a11.309,11.309,0,0,0,4.543,4.582,9.13,9.13,0,0,1,3.316,3.079.628.628,0,0,1-.325.932Z" transform="translate(-134.978 -100.845)" fill="#fff"/></g></svg>