<svg xmlns="http://www.w3.org/2000/svg" width="80.52" height="81.043" viewBox="0 0 80.52 81.043"><g transform="translate(0 0)"><path d="M76.367,13.47c6.248,6.915,4.394,21.246,1.249,35.369S69.988,76.862,59.723,83.77s-26.413,6.873-38.911.416S-.558,64.9.024,53.8,10.626,33.342,19.083,25.9s15.353-12.872,26-15.872S70.1,6.554,76.367,13.47Z" transform="translate(0.003 -7.948)" fill="#16262f"/><path d="M301.671,187.956c-.476-2.108-1.244-5.472-3.711-6.051-.6-.143-1.214-.166-1.824-.26-.844-.143-1.65-.449-2.487-.619a4.752,4.752,0,0,0-.917-.1c-.166.073-.343.148-.512.226a12.774,12.774,0,0,0-5.45,4.925,54.244,54.244,0,0,0-2.617,4.892,5.722,5.722,0,0,0-.812,2.414,4.709,4.709,0,0,1,.8-.2,7.839,7.839,0,0,1,1.278-.106,7.563,7.563,0,0,1,2.517.431c.186.066.37.139.549.22,1.116.5,2.089,1.275,3.19,1.807a4.1,4.1,0,0,0,3.532.262,7.2,7.2,0,0,0,1.658-1.391,2.756,2.756,0,0,1,1.792-.942,3.911,3.911,0,0,0,1.882-.264,2.982,2.982,0,0,0,1.449-2.376A8.829,8.829,0,0,0,301.671,187.956Z" transform="translate(-236.357 -152.246)" fill="#fff"/><path d="M248.662,270.469a8.189,8.189,0,0,0-1.87-2.29,12.86,12.86,0,0,0-2.464-2.139,9.266,9.266,0,0,0-3.054.977,5.924,5.924,0,0,1-2.011.265,11.618,11.618,0,0,0-2.565.365,6.207,6.207,0,0,0-.9.575,5.931,5.931,0,0,0-1.161,1.282,10.939,10.939,0,0,0-1.318,4.664c-.108,1.967.778,3.316,2.008,4.736a9.029,9.029,0,0,0,2.061,1.922,7.893,7.893,0,0,0,3.088.9,7.229,7.229,0,0,0,4.562-.517c1.6-.922,2.36-2.774,3.016-4.5C248.813,274.7,249.575,272.419,248.662,270.469Z" transform="translate(-194.619 -223.244)" fill="#fff"/><path d="M164.641,246.575c-2.232-1.222-3.814-3.8-6.537-3.963a8.52,8.52,0,0,0-3.219.507,19.115,19.115,0,0,0-3.482,2.487,11.059,11.059,0,0,0-3.529,7.024c-.066,1.637.995,3.444,2.618,3.607.56.056,1.128-.083,1.69-.038,1.534.123,2.756,1.577,4.295,1.564a3.484,3.484,0,0,0,2.8-2.015,9.285,9.285,0,0,0,.574-1.34C160.258,251.029,161.729,247.812,164.641,246.575Z" transform="translate(-123.352 -203.696)" fill="#fff"/><path d="M227.525,195.775c-.806-1.68-1.6-3.364-2.55-4.975s-2.02-3.18-3.088-4.7c-.5-.7-.876-1.436-1.368-2.141a3.914,3.914,0,0,0-1.234-1.282c-.524-.287-1.416-.287-1.327.534.076.638.75,1.068,1.186,1.459q.768.688,1.492,1.431a26.558,26.558,0,0,1,4.951,7.531c.3.663.632,1.3.968,1.94a1.586,1.586,0,0,0,.274.408.531.531,0,0,0,.448.166C227.438,196.115,227.6,195.922,227.525,195.775Z" transform="translate(-181.811 -153.559)" fill="#fff"/><ellipse cx="0.488" cy="0.488" rx="0.488" ry="0.488" transform="translate(35.844 31.617)" fill="#fff"/><ellipse cx="0.488" cy="0.488" rx="0.488" ry="0.488" transform="translate(34.244 30.337)" fill="#fff"/><ellipse cx="0.488" cy="0.488" rx="0.488" ry="0.488" transform="translate(34.841 27.503)" fill="#fff"/><ellipse cx="0.488" cy="0.488" rx="0.488" ry="0.488" transform="translate(37.747 27.243)" fill="#fff"/><ellipse cx="0.488" cy="0.488" rx="0.488" ry="0.488" transform="translate(39.462 28.941)" fill="#fff"/><path d="M149.805,175.554a1.527,1.527,0,0,0-.564.058,1.5,1.5,0,0,1-1.749-.375,1.419,1.419,0,0,1-.3-.663,1.436,1.436,0,0,1-1.247-1.947.128.128,0,0,1,0-.075,1.857,1.857,0,0,1,.8-.939,1.433,1.433,0,0,1-.111-2.307,1,1,0,0,1,.095-.07,4.517,4.517,0,0,0-2.52-.489,13,13,0,0,0-3.053,1.079,25.354,25.354,0,0,1-2.849.562,2.321,2.321,0,0,0-1.429.929,2.817,2.817,0,0,0-.332,1.658,8.007,8.007,0,0,1,0,1.715c-.141.859-.963,1.272-1.151,2.164a3.209,3.209,0,0,0,.56,2.532,4.881,4.881,0,0,0,3.85,1.711,4.612,4.612,0,0,0,.713-.048,16.111,16.111,0,0,1,5.222-1.7,7.113,7.113,0,0,1,5.386,1.666c.353.282.71.607,1.078.932l.322.245c.73.565,1.529,1.03,2.31,1.521a3.483,3.483,0,0,0,.433.121C153.732,180.922,152.355,177.685,149.805,175.554Z" transform="translate(-112.89 -142.07)" fill="#fff"/><path d="M249.408,127.854c-.526-.963-1.38-2.066-2.449-1.824-.643.148-1.073.753-1.658,1.056-1.061.552-2.335.022-3.442-.431s-2.517-.781-3.389.04c-.728.685-.71,1.857-1.255,2.7-.569.876-1.706,1.278-2.169,2.234a3.042,3.042,0,0,0-.265.839,1.436,1.436,0,0,1,1.227,1.643,1.438,1.438,0,0,1,1.743,1.443c-.012.443-.274.637-.426,1a1.527,1.527,0,0,0-.113.5c.93,1.414,1.869,2.819,2.724,4.286.466.8.909,1.608,1.3,2.444.184.39.347.791.526,1.182.592-3.109,2.86-6.105,4.875-8.291a15.653,15.653,0,0,1,3.888-3.091C251.279,131.775,250.375,129.62,249.408,127.854Z" transform="translate(-195.849 -106.421)" fill="#fff"/></g></svg>