<svg xmlns="http://www.w3.org/2000/svg" width="82.908" height="82.909" viewBox="0 0 82.908 82.909"><g transform="translate(0)"><path d="M69.334,73.556C58.743,82,42.306,85.218,29.734,81.183S8.454,65.9,3.786,54.518s-5.248-22.913-.678-33.361S17.4,1.33,27.866.138,49.589,5.925,59.955,13.55s19.93,15.919,22.314,26.9S79.925,65.109,69.334,73.556Z" transform="translate(0.033 -0.005)" fill="#16262f"/><path d="M128.03,168.937a9.016,9.016,0,0,1-4.983-14.537,11.3,11.3,0,0,0-5.261,6.88,9.019,9.019,0,0,0,6.827,10.778c3.429.769,7.377-1.338,9.472-3.874A8.977,8.977,0,0,1,128.03,168.937Z" transform="translate(-98.065 -128.799)" fill="#fff"/><path d="M185.8,140.634l1.363,2.4,2.709-.552a.237.237,0,0,1,.222.393l-1.867,2.04,1.36,2.406a.237.237,0,0,1-.305.332l-2.514-1.144-1.865,2.046a.237.237,0,0,1-.411-.187l.312-2.748-2.512-1.149a.237.237,0,0,1,.05-.449l2.709-.554.312-2.748a.237.237,0,0,1,.438-.09Z" transform="translate(-151.94 -117.22)" fill="#fff"/><path d="M260.034,185.223l.028,1.627a.272.272,0,0,0,.192.257l1.557.476a.274.274,0,0,1,.01.519l-1.54.531a.274.274,0,0,0-.184.264l.028,1.627a.272.272,0,0,1-.5.166l-.98-1.3a.27.27,0,0,0-.307-.093l-1.539.529a.274.274,0,0,1-.313-.415l.934-1.327a.274.274,0,0,0,0-.322l-.978-1.3a.274.274,0,0,1,.3-.426l1.557.476a.272.272,0,0,0,.3-.1l.934-1.327a.274.274,0,0,1,.5.141Z" transform="translate(-213.869 -154.295)" fill="#fff"/><path d="M220.587,336.207l.779,1.051a.25.25,0,0,0,.277.086l1.239-.416a.247.247,0,0,1,.28.376l-.759,1.066a.247.247,0,0,0,0,.288l.778,1.051a.245.245,0,0,1-.272.381l-1.247-.391a.244.244,0,0,0-.274.091l-.759,1.066a.245.245,0,0,1-.446-.141l-.013-1.308a.247.247,0,0,0-.166-.232l-1.247-.391a.247.247,0,0,1,0-.469L220,337.9a.245.245,0,0,0,.166-.235l-.013-1.308a.247.247,0,0,1,.438-.149Z" transform="translate(-182.336 -280.383)" fill="#fff"/><path d="M185.67,247.235c4.378-1.423,10.861-3,16.7,1.9s16.535,2.054,20.911-2.056c0,0-1.3-13.6-13.292-13.6-7.619,0-9.727,4.585-9.727,4.585s-5.026-3-10.861,1.108C185.224,242.112,185.67,247.235,185.67,247.235Z" transform="translate(-154.866 -194.766)" fill="#fff"/></g></svg>